# MagicaVoxel @ Ephtracy

# group
o 

# material
mtllib WallTorch.mtl
usemtl palette

# normals
vn -1 0 0
vn 1 0 0
vn 0 0 1
vn 0 0 -1
vn 0 -1 0
vn 0 1 0

# texcoords
vt 0.396484 0.5
vt 0.986328 0.5

# verts
v -0.4 0.6 0.1
v -0.4 0.6 -0.1
v -0.4 0.8 0.1
v -0.4 0.8 -0.1
v -0.4 1 0.2
v -0.4 1 0.1
v -0.4 1 -0.1
v -0.4 1 -0.2
v -0.4 1.1 0.2
v -0.4 1.1 0.1
v -0.4 1.1 -0.1
v -0.4 1.1 -0.2
v -0.3 0.8 0.1
v -0.3 0.8 -0.1
v -0.3 0.9 0.1
v -0.3 0.9 -0.1
v -0.2 0.9 0.1
v -0.2 0.9 -0.1
v -0.2 1 0.1
v -0.2 1 -0.1
v -0.2 1.1 0.1
v -0.2 1.1 -0.1
v -0.1 1.1 0.1
v -0.1 1.1 -0.1
v -0.1 1.3 0.1
v -0.1 1.3 -0.1
v 0 1.2 0.2
v 0 1.2 0.1
v 0 1.2 -0.1
v 0 1.2 -0.2
v 0 1.3 0.2
v 0 1.3 0.1
v 0 1.3 -0.1
v 0 1.3 -0.2
v -0.2 0.6 0.1
v -0.2 0.6 -0.1
v -0.2 0.7 0.1
v -0.2 0.7 -0.1
v -0.1 0.7 0.1
v -0.1 0.7 -0.1
v -0.1 0.8 0.1
v -0.1 0.8 -0.1
v 0 0.8 0.1
v 0 0.8 -0.1
v 0 1 0.1
v 0 1 -0.1
v 0.1 1 0.2
v 0.1 1 -0.2
v 0.1 1.1 0.2
v 0.1 1.1 0.1
v 0.1 1.1 -0.1
v 0.1 1.1 -0.2
v 0.2 1.1 0.1
v 0.2 1.1 -0.1
v 0.2 1.2 0.2
v 0.2 1.2 0.1
v 0.2 1.2 -0.1
v 0.2 1.2 -0.2
v 0.2 1.3 0.2
v 0.2 1.3 0.1
v 0.2 1.3 -0.1
v 0.2 1.3 -0.2
v 0.3 1.2 0.1
v 0.3 1.2 -0.1
v 0.3 1.3 0.1
v 0.3 1.3 -0.1
v -0.4 1 0.2
v -0.4 1.1 0.2
v 0 1.2 0.2
v 0 1.3 0.2
v 0.1 1 0.2
v 0.1 1.1 0.2
v 0.2 1.2 0.2
v 0.2 1.3 0.2
v -0.4 0.6 0.1
v -0.4 0.8 0.1
v -0.3 0.8 0.1
v -0.3 0.9 0.1
v -0.2 0.6 0.1
v -0.2 0.7 0.1
v -0.2 0.9 0.1
v -0.2 1 0.1
v -0.1 0.7 0.1
v -0.1 0.8 0.1
v -0.1 1.1 0.1
v -0.1 1.3 0.1
v 0 0.8 0.1
v 0 1 0.1
v 0 1.2 0.1
v 0 1.3 0.1
v 0.1 1.1 0.1
v 0.2 1.1 0.1
v 0.2 1.2 0.1
v 0.2 1.3 0.1
v 0.3 1.2 0.1
v 0.3 1.3 0.1
v -0.4 1 -0.1
v -0.4 1.1 -0.1
v -0.2 1 -0.1
v -0.2 1.1 -0.1
v -0.4 1 0.1
v -0.4 1.1 0.1
v -0.2 1 0.1
v -0.2 1.1 0.1
v -0.4 0.6 -0.1
v -0.4 0.8 -0.1
v -0.3 0.8 -0.1
v -0.3 0.9 -0.1
v -0.2 0.6 -0.1
v -0.2 0.7 -0.1
v -0.2 0.9 -0.1
v -0.2 1 -0.1
v -0.1 0.7 -0.1
v -0.1 0.8 -0.1
v -0.1 1.1 -0.1
v -0.1 1.3 -0.1
v 0 0.8 -0.1
v 0 1 -0.1
v 0 1.2 -0.1
v 0 1.3 -0.1
v 0.1 1.1 -0.1
v 0.2 1.1 -0.1
v 0.2 1.2 -0.1
v 0.2 1.3 -0.1
v 0.3 1.2 -0.1
v 0.3 1.3 -0.1
v -0.4 1 -0.2
v -0.4 1.1 -0.2
v 0 1.2 -0.2
v 0 1.3 -0.2
v 0.1 1 -0.2
v 0.1 1.1 -0.2
v 0.2 1.2 -0.2
v 0.2 1.3 -0.2
v -0.4 0.6 0.1
v -0.2 0.6 0.1
v -0.4 0.6 -0.1
v -0.2 0.6 -0.1
v -0.2 0.7 0.1
v -0.1 0.7 0.1
v -0.2 0.7 -0.1
v -0.1 0.7 -0.1
v -0.1 0.8 0.1
v 0 0.8 0.1
v -0.1 0.8 -0.1
v 0 0.8 -0.1
v -0.4 1 0.2
v 0.1 1 0.2
v -0.4 1 0.1
v -0.2 1 0.1
v 0 1 0.1
v -0.4 1 -0.1
v -0.2 1 -0.1
v 0 1 -0.1
v -0.4 1 -0.2
v 0.1 1 -0.2
v 0.1 1.1 0.1
v 0.2 1.1 0.1
v 0.1 1.1 -0.1
v 0.2 1.1 -0.1
v 0 1.2 0.2
v 0.2 1.2 0.2
v 0 1.2 0.1
v 0.2 1.2 0.1
v 0.3 1.2 0.1
v 0 1.2 -0.1
v 0.2 1.2 -0.1
v 0.3 1.2 -0.1
v 0 1.2 -0.2
v 0.2 1.2 -0.2
v -0.4 0.8 0.1
v -0.3 0.8 0.1
v -0.4 0.8 -0.1
v -0.3 0.8 -0.1
v -0.3 0.9 0.1
v -0.2 0.9 0.1
v -0.3 0.9 -0.1
v -0.2 0.9 -0.1
v -0.4 1.1 0.2
v 0.1 1.1 0.2
v -0.4 1.1 0.1
v -0.2 1.1 0.1
v -0.1 1.1 0.1
v 0.1 1.1 0.1
v -0.4 1.1 -0.1
v -0.2 1.1 -0.1
v -0.1 1.1 -0.1
v 0.1 1.1 -0.1
v -0.4 1.1 -0.2
v 0.1 1.1 -0.2
v 0 1.3 0.2
v 0.2 1.3 0.2
v -0.1 1.3 0.1
v 0 1.3 0.1
v 0.2 1.3 0.1
v 0.3 1.3 0.1
v -0.1 1.3 -0.1
v 0 1.3 -0.1
v 0.2 1.3 -0.1
v 0.3 1.3 -0.1
v 0 1.3 -0.2
v 0.2 1.3 -0.2

# faces
f 3/2/1 2/2/1 1/2/1
f 4/2/1 2/2/1 3/2/1
f 9/1/1 6/1/1 5/1/1
f 10/1/1 6/1/1 9/1/1
f 11/1/1 8/1/1 7/1/1
f 12/1/1 8/1/1 11/1/1
f 15/2/1 14/2/1 13/2/1
f 16/2/1 14/2/1 15/2/1
f 19/2/1 18/2/1 17/2/1
f 20/2/1 18/2/1 19/2/1
f 21/2/1 20/2/1 19/2/1
f 22/2/1 20/2/1 21/2/1
f 25/2/1 24/2/1 23/2/1
f 26/2/1 24/2/1 25/2/1
f 31/2/1 28/2/1 27/2/1
f 32/2/1 28/2/1 31/2/1
f 33/2/1 30/2/1 29/2/1
f 34/2/1 30/2/1 33/2/1
f 35/2/2 36/2/2 37/2/2
f 37/2/2 36/2/2 38/2/2
f 39/2/2 40/2/2 41/2/2
f 41/2/2 40/2/2 42/2/2
f 43/2/2 44/2/2 45/2/2
f 45/2/2 44/2/2 46/2/2
f 47/1/2 48/1/2 49/1/2
f 49/1/2 48/1/2 50/1/2
f 50/1/2 48/1/2 51/1/2
f 51/1/2 48/1/2 52/1/2
f 53/2/2 54/2/2 56/2/2
f 56/2/2 54/2/2 57/2/2
f 55/2/2 56/2/2 59/2/2
f 59/2/2 56/2/2 60/2/2
f 57/2/2 58/2/2 61/2/2
f 61/2/2 58/2/2 62/2/2
f 63/2/2 64/2/2 65/2/2
f 65/2/2 64/2/2 66/2/2
f 71/1/3 68/1/3 67/1/3
f 72/1/3 68/1/3 71/1/3
f 73/2/3 70/2/3 69/2/3
f 74/2/3 70/2/3 73/2/3
f 77/2/3 76/2/3 75/2/3
f 79/2/3 77/2/3 75/2/3
f 79/2/3 78/2/3 77/2/3
f 80/2/3 78/2/3 79/2/3
f 81/2/3 78/2/3 80/2/3
f 83/2/3 82/2/3 81/2/3
f 83/2/3 81/2/3 80/2/3
f 84/2/3 82/2/3 83/2/3
f 87/2/3 82/2/3 84/2/3
f 88/2/3 82/2/3 87/2/3
f 89/2/3 86/2/3 85/2/3
f 90/2/3 86/2/3 89/2/3
f 91/2/3 89/2/3 85/2/3
f 92/2/3 89/2/3 91/2/3
f 93/2/3 89/2/3 92/2/3
f 95/2/3 94/2/3 93/2/3
f 96/2/3 94/2/3 95/2/3
f 99/1/3 98/1/3 97/1/3
f 100/1/3 98/1/3 99/1/3
f 101/1/4 102/1/4 103/1/4
f 103/1/4 102/1/4 104/1/4
f 105/2/4 106/2/4 107/2/4
f 105/2/4 107/2/4 109/2/4
f 107/2/4 108/2/4 109/2/4
f 109/2/4 108/2/4 110/2/4
f 110/2/4 108/2/4 111/2/4
f 111/2/4 112/2/4 113/2/4
f 110/2/4 111/2/4 113/2/4
f 113/2/4 112/2/4 114/2/4
f 114/2/4 112/2/4 117/2/4
f 117/2/4 112/2/4 118/2/4
f 115/2/4 116/2/4 119/2/4
f 119/2/4 116/2/4 120/2/4
f 115/2/4 119/2/4 121/2/4
f 121/2/4 119/2/4 122/2/4
f 122/2/4 119/2/4 123/2/4
f 123/2/4 124/2/4 125/2/4
f 125/2/4 124/2/4 126/2/4
f 127/1/4 128/1/4 131/1/4
f 131/1/4 128/1/4 132/1/4
f 129/2/4 130/2/4 133/2/4
f 133/2/4 130/2/4 134/2/4
f 137/2/5 136/2/5 135/2/5
f 138/2/5 136/2/5 137/2/5
f 141/2/5 140/2/5 139/2/5
f 142/2/5 140/2/5 141/2/5
f 145/2/5 144/2/5 143/2/5
f 146/2/5 144/2/5 145/2/5
f 149/1/5 148/1/5 147/1/5
f 150/1/5 148/1/5 149/1/5
f 151/1/5 148/1/5 150/1/5
f 154/1/5 148/1/5 151/1/5
f 155/1/5 153/1/5 152/1/5
f 155/1/5 154/1/5 153/1/5
f 156/1/5 148/1/5 154/1/5
f 156/1/5 154/1/5 155/1/5
f 159/2/5 158/2/5 157/2/5
f 160/2/5 158/2/5 159/2/5
f 163/2/5 162/2/5 161/2/5
f 164/2/5 162/2/5 163/2/5
f 167/2/5 165/2/5 164/2/5
f 168/2/5 165/2/5 167/2/5
f 169/2/5 167/2/5 166/2/5
f 170/2/5 167/2/5 169/2/5
f 171/2/6 172/2/6 173/2/6
f 173/2/6 172/2/6 174/2/6
f 175/2/6 176/2/6 177/2/6
f 177/2/6 176/2/6 178/2/6
f 179/1/6 180/1/6 181/1/6
f 181/1/6 180/1/6 182/1/6
f 182/1/6 180/1/6 183/1/6
f 183/1/6 180/1/6 184/1/6
f 182/2/6 183/2/6 186/2/6
f 186/2/6 183/2/6 187/2/6
f 185/1/6 186/1/6 189/1/6
f 187/1/6 188/1/6 189/1/6
f 186/1/6 187/1/6 189/1/6
f 189/1/6 188/1/6 190/1/6
f 191/2/6 192/2/6 194/2/6
f 194/2/6 192/2/6 195/2/6
f 193/2/6 194/2/6 197/2/6
f 195/2/6 196/2/6 197/2/6
f 194/2/6 195/2/6 197/2/6
f 197/2/6 196/2/6 198/2/6
f 198/2/6 196/2/6 199/2/6
f 199/2/6 196/2/6 200/2/6
f 198/2/6 199/2/6 201/2/6
f 201/2/6 199/2/6 202/2/6
