# MagicaVoxel @ Ephtracy

# group
o 

# material
mtllib BasicSwordTest.mtl
usemtl palette

# normals
vn -1 0 0
vn 1 0 0
vn 0 0 1
vn 0 0 -1
vn 0 -1 0
vn 0 1 0

# texcoords
vt 0.169922 0.5
vt 0.396484 0.5
vt 0.970703 0.5
vt 0.978516 0.5
vt 0.986328 0.5

# verts
v -1.9 3.6 0.1
v -1.9 3.6 -0.1
v -1.9 3.9 0.1
v -1.9 3.9 -0.1
v -1.8 3.5 0.1
v -1.8 3.5 -0.1
v -1.8 3.6 0.1
v -1.8 3.6 -0.1
v -1.7 3.4 0.1
v -1.7 3.4 -0.1
v -1.7 3.5 0.1
v -1.7 3.5 -0.1
v -1.6 3.3 0.1
v -1.6 3.3 -0.1
v -1.6 3.4 0.1
v -1.6 3.4 -0.1
v -1.5 3.2 0.1
v -1.5 3.2 -0.1
v -1.5 3.3 0.1
v -1.5 3.3 -0.1
v -1.4 3.1 0.1
v -1.4 3.1 -0.1
v -1.4 3.2 0.1
v -1.4 3.2 -0.1
v -1.3 2.7 0.1
v -1.3 2.7 -0.1
v -1.3 2.9 0.1
v -1.3 2.9 -0.1
v -1.3 3 0.1
v -1.3 3 -0.1
v -1.3 3.1 0.1
v -1.3 3.1 -0.1
v -1.2 2.9 0.1
v -1.2 2.9 -0.1
v -1.2 3 0.1
v -1.2 3 -0.1
v -0.9 2.7 0.1
v -0.9 2.7 -0.1
v -0.9 2.8 0.1
v -0.9 2.8 -0.1
v -0.9 3.2 0.1
v -0.9 3.2 -0.1
v -0.9 3.3 0.1
v -0.9 3.3 -0.1
v -0.8 2.6 0.1
v -0.8 2.6 -0.1
v -0.8 2.7 0.1
v -0.8 2.7 -0.1
v -0.7 2.4 0.1
v -0.7 2.4 -0.1
v -0.7 2.6 0.1
v -0.7 2.6 -0.1
v -1.6 3.8 0.1
v -1.6 3.8 -0.1
v -1.6 3.9 0.1
v -1.6 3.9 -0.1
v -1.5 3.7 0.1
v -1.5 3.7 -0.1
v -1.5 3.8 0.1
v -1.5 3.8 -0.1
v -1.4 3.6 0.1
v -1.4 3.6 -0.1
v -1.4 3.7 0.1
v -1.4 3.7 -0.1
v -1.3 3.5 0.1
v -1.3 3.5 -0.1
v -1.3 3.6 0.1
v -1.3 3.6 -0.1
v -1.2 3.4 0.1
v -1.2 3.4 -0.1
v -1.2 3.5 0.1
v -1.2 3.5 -0.1
v -1.1 2.7 0.1
v -1.1 2.7 -0.1
v -1.1 2.8 0.1
v -1.1 2.8 -0.1
v -1.1 3.3 0.1
v -1.1 3.3 -0.1
v -1.1 3.4 0.1
v -1.1 3.4 -0.1
v -1 3.2 0.1
v -1 3.2 -0.1
v -1 3.3 0.1
v -1 3.3 -0.1
v -0.8 2.9 0.1
v -0.8 2.9 -0.1
v -0.8 3.1 0.1
v -0.8 3.1 -0.1
v -0.7 2.8 0.1
v -0.7 2.8 -0.1
v -0.7 2.9 0.1
v -0.7 2.9 -0.1
v -0.7 3.1 0.1
v -0.7 3.1 -0.1
v -0.7 3.3 0.1
v -0.7 3.3 -0.1
v -0.6 2.7 0.1
v -0.6 2.7 -0.1
v -0.6 2.8 0.1
v -0.6 2.8 -0.1
v -0.4 2.4 0.1
v -0.4 2.4 -0.1
v -0.4 2.7 0.1
v -0.4 2.7 -0.1
v -1.9 3.6 0.1
v -1.9 3.9 0.1
v -1.8 3.5 0.1
v -1.8 3.6 0.1
v -1.8 3.8 0.1
v -1.7 3.4 0.1
v -1.7 3.5 0.1
v -1.7 3.6 0.1
v -1.6 3.3 0.1
v -1.6 3.4 0.1
v -1.6 3.5 0.1
v -1.6 3.7 0.1
v -1.6 3.8 0.1
v -1.6 3.9 0.1
v -1.5 3.2 0.1
v -1.5 3.3 0.1
v -1.5 3.4 0.1
v -1.5 3.6 0.1
v -1.5 3.7 0.1
v -1.5 3.8 0.1
v -1.4 3.1 0.1
v -1.4 3.2 0.1
v -1.4 3.3 0.1
v -1.4 3.5 0.1
v -1.4 3.6 0.1
v -1.4 3.7 0.1
v -1.3 2.7 0.1
v -1.3 2.9 0.1
v -1.3 3 0.1
v -1.3 3.1 0.1
v -1.3 3.2 0.1
v -1.3 3.4 0.1
v -1.3 3.5 0.1
v -1.3 3.6 0.1
v -1.2 2.9 0.1
v -1.2 3 0.1
v -1.2 3.3 0.1
v -1.2 3.4 0.1
v -1.2 3.5 0.1
v -1.1 2.7 0.1
v -1.1 2.8 0.1
v -1.1 3 0.1
v -1.1 3.1 0.1
v -1.1 3.3 0.1
v -1.1 3.4 0.1
v -1 2.9 0.1
v -1 3 0.1
v -1 3.1 0.1
v -1 3.2 0.1
v -1 3.3 0.1
v -0.9 2.7 0.1
v -0.9 2.8 0.1
v -0.9 2.9 0.1
v -0.9 3 0.1
v -0.9 3.2 0.1
v -0.9 3.3 0.1
v -0.8 2.6 0.1
v -0.8 2.7 0.1
v -0.8 2.8 0.1
v -0.8 2.9 0.1
v -0.8 3.1 0.1
v -0.7 2.4 0.1
v -0.7 2.6 0.1
v -0.7 2.7 0.1
v -0.7 2.8 0.1
v -0.7 2.9 0.1
v -0.7 3.1 0.1
v -0.7 3.3 0.1
v -0.6 2.5 0.1
v -0.6 2.6 0.1
v -0.6 2.7 0.1
v -0.6 2.8 0.1
v -0.5 2.5 0.1
v -0.5 2.6 0.1
v -0.4 2.4 0.1
v -0.4 2.7 0.1
v -1.9 3.6 -0.1
v -1.9 3.9 -0.1
v -1.8 3.5 -0.1
v -1.8 3.6 -0.1
v -1.8 3.8 -0.1
v -1.7 3.4 -0.1
v -1.7 3.5 -0.1
v -1.7 3.6 -0.1
v -1.6 3.3 -0.1
v -1.6 3.4 -0.1
v -1.6 3.5 -0.1
v -1.6 3.7 -0.1
v -1.6 3.8 -0.1
v -1.6 3.9 -0.1
v -1.5 3.2 -0.1
v -1.5 3.3 -0.1
v -1.5 3.4 -0.1
v -1.5 3.6 -0.1
v -1.5 3.7 -0.1
v -1.5 3.8 -0.1
v -1.4 3.1 -0.1
v -1.4 3.2 -0.1
v -1.4 3.3 -0.1
v -1.4 3.5 -0.1
v -1.4 3.6 -0.1
v -1.4 3.7 -0.1
v -1.3 2.7 -0.1
v -1.3 2.9 -0.1
v -1.3 3 -0.1
v -1.3 3.1 -0.1
v -1.3 3.2 -0.1
v -1.3 3.4 -0.1
v -1.3 3.5 -0.1
v -1.3 3.6 -0.1
v -1.2 2.9 -0.1
v -1.2 3 -0.1
v -1.2 3.3 -0.1
v -1.2 3.4 -0.1
v -1.2 3.5 -0.1
v -1.1 2.7 -0.1
v -1.1 2.8 -0.1
v -1.1 3 -0.1
v -1.1 3.1 -0.1
v -1.1 3.3 -0.1
v -1.1 3.4 -0.1
v -1 2.9 -0.1
v -1 3 -0.1
v -1 3.1 -0.1
v -1 3.2 -0.1
v -1 3.3 -0.1
v -0.9 2.7 -0.1
v -0.9 2.8 -0.1
v -0.9 2.9 -0.1
v -0.9 3 -0.1
v -0.9 3.2 -0.1
v -0.9 3.3 -0.1
v -0.8 2.6 -0.1
v -0.8 2.7 -0.1
v -0.8 2.8 -0.1
v -0.8 2.9 -0.1
v -0.8 3.1 -0.1
v -0.7 2.4 -0.1
v -0.7 2.6 -0.1
v -0.7 2.7 -0.1
v -0.7 2.8 -0.1
v -0.7 2.9 -0.1
v -0.7 3.1 -0.1
v -0.7 3.3 -0.1
v -0.6 2.5 -0.1
v -0.6 2.6 -0.1
v -0.6 2.7 -0.1
v -0.6 2.8 -0.1
v -0.5 2.5 -0.1
v -0.5 2.6 -0.1
v -0.4 2.4 -0.1
v -0.4 2.7 -0.1
v -0.7 2.4 0.1
v -0.4 2.4 0.1
v -0.7 2.4 -0.1
v -0.4 2.4 -0.1
v -0.8 2.6 0.1
v -0.7 2.6 0.1
v -0.8 2.6 -0.1
v -0.7 2.6 -0.1
v -1.3 2.7 0.1
v -1.1 2.7 0.1
v -0.9 2.7 0.1
v -0.8 2.7 0.1
v -1.3 2.7 -0.1
v -1.1 2.7 -0.1
v -0.9 2.7 -0.1
v -0.8 2.7 -0.1
v -1.1 2.8 0.1
v -0.9 2.8 0.1
v -1.1 2.8 -0.1
v -0.9 2.8 -0.1
v -1.3 3 0.1
v -1.2 3 0.1
v -1.3 3 -0.1
v -1.2 3 -0.1
v -1.4 3.1 0.1
v -1.3 3.1 0.1
v -0.8 3.1 0.1
v -0.7 3.1 0.1
v -1.4 3.1 -0.1
v -1.3 3.1 -0.1
v -0.8 3.1 -0.1
v -0.7 3.1 -0.1
v -1.5 3.2 0.1
v -1.4 3.2 0.1
v -1.5 3.2 -0.1
v -1.4 3.2 -0.1
v -1.6 3.3 0.1
v -1.5 3.3 0.1
v -1.6 3.3 -0.1
v -1.5 3.3 -0.1
v -1.7 3.4 0.1
v -1.6 3.4 0.1
v -1.7 3.4 -0.1
v -1.6 3.4 -0.1
v -1.8 3.5 0.1
v -1.7 3.5 0.1
v -1.8 3.5 -0.1
v -1.7 3.5 -0.1
v -1.9 3.6 0.1
v -1.8 3.6 0.1
v -1.9 3.6 -0.1
v -1.8 3.6 -0.1
v -0.6 2.7 0.1
v -0.4 2.7 0.1
v -0.6 2.7 -0.1
v -0.4 2.7 -0.1
v -0.7 2.8 0.1
v -0.6 2.8 0.1
v -0.7 2.8 -0.1
v -0.6 2.8 -0.1
v -1.3 2.9 0.1
v -1.2 2.9 0.1
v -0.8 2.9 0.1
v -0.7 2.9 0.1
v -1.3 2.9 -0.1
v -1.2 2.9 -0.1
v -0.8 2.9 -0.1
v -0.7 2.9 -0.1
v -1 3.2 0.1
v -0.9 3.2 0.1
v -1 3.2 -0.1
v -0.9 3.2 -0.1
v -1.1 3.3 0.1
v -1 3.3 0.1
v -0.9 3.3 0.1
v -0.7 3.3 0.1
v -1.1 3.3 -0.1
v -1 3.3 -0.1
v -0.9 3.3 -0.1
v -0.7 3.3 -0.1
v -1.2 3.4 0.1
v -1.1 3.4 0.1
v -1.2 3.4 -0.1
v -1.1 3.4 -0.1
v -1.3 3.5 0.1
v -1.2 3.5 0.1
v -1.3 3.5 -0.1
v -1.2 3.5 -0.1
v -1.4 3.6 0.1
v -1.3 3.6 0.1
v -1.4 3.6 -0.1
v -1.3 3.6 -0.1
v -1.5 3.7 0.1
v -1.4 3.7 0.1
v -1.5 3.7 -0.1
v -1.4 3.7 -0.1
v -1.6 3.8 0.1
v -1.5 3.8 0.1
v -1.6 3.8 -0.1
v -1.5 3.8 -0.1
v -1.9 3.9 0.1
v -1.6 3.9 0.1
v -1.9 3.9 -0.1
v -1.6 3.9 -0.1

# faces
f 3/4/1 2/4/1 1/4/1
f 4/4/1 2/4/1 3/4/1
f 7/4/1 6/4/1 5/4/1
f 8/4/1 6/4/1 7/4/1
f 11/4/1 10/4/1 9/4/1
f 12/4/1 10/4/1 11/4/1
f 15/4/1 14/4/1 13/4/1
f 16/4/1 14/4/1 15/4/1
f 19/4/1 18/4/1 17/4/1
f 20/4/1 18/4/1 19/4/1
f 23/4/1 22/4/1 21/4/1
f 24/4/1 22/4/1 23/4/1
f 27/2/1 26/2/1 25/2/1
f 28/2/1 26/2/1 27/2/1
f 31/4/1 30/4/1 29/4/1
f 32/4/1 30/4/1 31/4/1
f 35/2/1 34/2/1 33/2/1
f 36/2/1 34/2/1 35/2/1
f 39/1/1 38/1/1 37/1/1
f 40/1/1 38/1/1 39/1/1
f 43/2/1 42/2/1 41/2/1
f 44/2/1 42/2/1 43/2/1
f 47/1/1 46/1/1 45/1/1
f 48/1/1 46/1/1 47/1/1
f 51/4/1 50/4/1 49/4/1
f 52/4/1 50/4/1 51/4/1
f 53/4/2 54/4/2 55/4/2
f 55/4/2 54/4/2 56/4/2
f 57/4/2 58/4/2 59/4/2
f 59/4/2 58/4/2 60/4/2
f 61/4/2 62/4/2 63/4/2
f 63/4/2 62/4/2 64/4/2
f 65/4/2 66/4/2 67/4/2
f 67/4/2 66/4/2 68/4/2
f 69/4/2 70/4/2 71/4/2
f 71/4/2 70/4/2 72/4/2
f 73/2/2 74/2/2 75/2/2
f 75/2/2 74/2/2 76/2/2
f 77/4/2 78/4/2 79/4/2
f 79/4/2 78/4/2 80/4/2
f 81/4/2 82/4/2 83/4/2
f 83/4/2 82/4/2 84/4/2
f 85/2/2 86/2/2 87/2/2
f 87/2/2 86/2/2 88/2/2
f 89/1/2 90/1/2 91/1/2
f 91/1/2 90/1/2 92/1/2
f 93/2/2 94/2/2 95/2/2
f 95/2/2 94/2/2 96/2/2
f 97/1/2 98/1/2 99/1/2
f 99/1/2 98/1/2 100/1/2
f 101/4/2 102/4/2 103/4/2
f 103/4/2 102/4/2 104/4/2
f 108/4/3 106/4/3 105/4/3
f 109/4/3 106/4/3 108/4/3
f 111/4/3 108/4/3 107/4/3
f 112/3/3 109/3/3 108/3/3
f 112/4/3 108/4/3 111/4/3
f 114/4/3 111/4/3 110/4/3
f 115/3/3 112/3/3 111/3/3
f 115/4/3 111/4/3 114/4/3
f 116/3/3 109/3/3 112/3/3
f 116/3/3 112/3/3 115/3/3
f 117/4/3 106/4/3 109/4/3
f 117/3/3 109/3/3 116/3/3
f 118/4/3 106/4/3 117/4/3
f 120/4/3 114/4/3 113/4/3
f 121/3/3 116/3/3 115/3/3
f 121/3/3 115/3/3 114/3/3
f 121/4/3 114/4/3 120/4/3
f 122/3/3 116/3/3 121/3/3
f 123/4/3 117/4/3 116/4/3
f 123/3/3 116/3/3 122/3/3
f 124/4/3 117/4/3 123/4/3
f 126/4/3 120/4/3 119/4/3
f 127/3/3 122/3/3 121/3/3
f 127/3/3 121/3/3 120/3/3
f 127/4/3 120/4/3 126/4/3
f 128/3/3 122/3/3 127/3/3
f 129/4/3 123/4/3 122/4/3
f 129/3/3 122/3/3 128/3/3
f 130/4/3 123/4/3 129/4/3
f 134/4/3 126/4/3 125/4/3
f 135/3/3 128/3/3 127/3/3
f 135/3/3 127/3/3 126/3/3
f 135/4/3 126/4/3 134/4/3
f 136/3/3 128/3/3 135/3/3
f 137/4/3 129/4/3 128/4/3
f 137/3/3 128/3/3 136/3/3
f 138/4/3 129/4/3 137/4/3
f 139/2/3 132/2/3 131/2/3
f 140/4/3 134/4/3 133/4/3
f 141/3/3 136/3/3 135/3/3
f 141/3/3 135/3/3 134/3/3
f 142/4/3 137/4/3 136/4/3
f 142/3/3 136/3/3 141/3/3
f 143/4/3 137/4/3 142/4/3
f 144/2/3 139/2/3 131/2/3
f 144/2/3 140/2/3 139/2/3
f 145/2/3 140/2/3 144/2/3
f 146/4/3 134/4/3 140/4/3
f 146/2/3 140/2/3 145/2/3
f 147/3/3 141/3/3 134/3/3
f 147/4/3 134/4/3 146/4/3
f 148/4/3 142/4/3 141/4/3
f 148/3/3 141/3/3 147/3/3
f 149/4/3 142/4/3 148/4/3
f 150/2/3 147/2/3 146/2/3
f 150/2/3 146/2/3 145/2/3
f 151/2/3 147/2/3 150/2/3
f 152/4/3 148/4/3 147/4/3
f 152/2/3 147/2/3 151/2/3
f 153/4/3 148/4/3 152/4/3
f 154/4/3 148/4/3 153/4/3
f 156/2/3 150/2/3 145/2/3
f 157/5/3 151/5/3 150/5/3
f 157/2/3 150/2/3 156/2/3
f 158/2/3 152/2/3 151/2/3
f 158/5/3 151/5/3 157/5/3
f 158/2/3 153/2/3 152/2/3
f 159/2/3 153/2/3 158/2/3
f 162/1/3 156/1/3 155/1/3
f 163/2/3 160/2/3 159/2/3
f 163/2/3 157/2/3 156/2/3
f 163/1/3 156/1/3 162/1/3
f 163/2/3 158/2/3 157/2/3
f 163/2/3 159/2/3 158/2/3
f 164/2/3 160/2/3 163/2/3
f 165/2/3 160/2/3 164/2/3
f 167/1/3 162/1/3 161/1/3
f 167/1/3 163/1/3 162/1/3
f 167/1/3 164/1/3 163/1/3
f 168/1/3 164/1/3 167/1/3
f 169/1/3 164/1/3 168/1/3
f 170/1/3 164/1/3 169/1/3
f 171/2/3 160/2/3 165/2/3
f 172/2/3 160/2/3 171/2/3
f 173/4/3 167/4/3 166/4/3
f 173/4/3 168/4/3 167/4/3
f 174/4/3 168/4/3 173/4/3
f 175/1/3 169/1/3 168/1/3
f 175/4/3 168/4/3 174/4/3
f 176/1/3 169/1/3 175/1/3
f 177/5/3 174/5/3 173/5/3
f 177/4/3 173/4/3 166/4/3
f 178/4/3 175/4/3 174/4/3
f 178/5/3 174/5/3 177/5/3
f 179/4/3 177/4/3 166/4/3
f 179/4/3 178/4/3 177/4/3
f 180/4/3 175/4/3 178/4/3
f 180/4/3 178/4/3 179/4/3
f 181/4/4 182/4/4 184/4/4
f 184/4/4 182/4/4 185/4/4
f 183/4/4 184/4/4 187/4/4
f 184/3/4 185/3/4 188/3/4
f 187/4/4 184/4/4 188/4/4
f 186/4/4 187/4/4 190/4/4
f 187/3/4 188/3/4 191/3/4
f 190/4/4 187/4/4 191/4/4
f 188/3/4 185/3/4 192/3/4
f 191/3/4 188/3/4 192/3/4
f 185/4/4 182/4/4 193/4/4
f 192/3/4 185/3/4 193/3/4
f 193/4/4 182/4/4 194/4/4
f 189/4/4 190/4/4 196/4/4
f 191/3/4 192/3/4 197/3/4
f 190/3/4 191/3/4 197/3/4
f 196/4/4 190/4/4 197/4/4
f 197/3/4 192/3/4 198/3/4
f 192/4/4 193/4/4 199/4/4
f 198/3/4 192/3/4 199/3/4
f 199/4/4 193/4/4 200/4/4
f 195/4/4 196/4/4 202/4/4
f 197/3/4 198/3/4 203/3/4
f 196/3/4 197/3/4 203/3/4
f 202/4/4 196/4/4 203/4/4
f 203/3/4 198/3/4 204/3/4
f 198/4/4 199/4/4 205/4/4
f 204/3/4 198/3/4 205/3/4
f 205/4/4 199/4/4 206/4/4
f 201/4/4 202/4/4 210/4/4
f 203/3/4 204/3/4 211/3/4
f 202/3/4 203/3/4 211/3/4
f 210/4/4 202/4/4 211/4/4
f 211/3/4 204/3/4 212/3/4
f 204/4/4 205/4/4 213/4/4
f 212/3/4 204/3/4 213/3/4
f 213/4/4 205/4/4 214/4/4
f 207/2/4 208/2/4 215/2/4
f 209/4/4 210/4/4 216/4/4
f 211/3/4 212/3/4 217/3/4
f 210/3/4 211/3/4 217/3/4
f 212/4/4 213/4/4 218/4/4
f 217/3/4 212/3/4 218/3/4
f 218/4/4 213/4/4 219/4/4
f 207/2/4 215/2/4 220/2/4
f 215/2/4 216/2/4 220/2/4
f 220/2/4 216/2/4 221/2/4
f 216/4/4 210/4/4 222/4/4
f 221/2/4 216/2/4 222/2/4
f 210/3/4 217/3/4 223/3/4
f 222/4/4 210/4/4 223/4/4
f 217/4/4 218/4/4 224/4/4
f 223/3/4 217/3/4 224/3/4
f 224/4/4 218/4/4 225/4/4
f 222/2/4 223/2/4 226/2/4
f 221/2/4 222/2/4 226/2/4
f 226/2/4 223/2/4 227/2/4
f 223/4/4 224/4/4 228/4/4
f 227/2/4 223/2/4 228/2/4
f 228/4/4 224/4/4 229/4/4
f 229/4/4 224/4/4 230/4/4
f 221/2/4 226/2/4 232/2/4
f 226/5/4 227/5/4 233/5/4
f 232/2/4 226/2/4 233/2/4
f 227/2/4 228/2/4 234/2/4
f 233/5/4 227/5/4 234/5/4
f 228/2/4 229/2/4 234/2/4
f 234/2/4 229/2/4 235/2/4
f 231/1/4 232/1/4 238/1/4
f 235/2/4 236/2/4 239/2/4
f 232/2/4 233/2/4 239/2/4
f 238/1/4 232/1/4 239/1/4
f 233/2/4 234/2/4 239/2/4
f 234/2/4 235/2/4 239/2/4
f 239/2/4 236/2/4 240/2/4
f 240/2/4 236/2/4 241/2/4
f 237/1/4 238/1/4 243/1/4
f 238/1/4 239/1/4 243/1/4
f 239/1/4 240/1/4 243/1/4
f 243/1/4 240/1/4 244/1/4
f 244/1/4 240/1/4 245/1/4
f 245/1/4 240/1/4 246/1/4
f 241/2/4 236/2/4 247/2/4
f 247/2/4 236/2/4 248/2/4
f 242/4/4 243/4/4 249/4/4
f 243/4/4 244/4/4 249/4/4
f 249/4/4 244/4/4 250/4/4
f 244/1/4 245/1/4 251/1/4
f 250/4/4 244/4/4 251/4/4
f 251/1/4 245/1/4 252/1/4
f 249/5/4 250/5/4 253/5/4
f 242/4/4 249/4/4 253/4/4
f 250/4/4 251/4/4 254/4/4
f 253/5/4 250/5/4 254/5/4
f 242/4/4 253/4/4 255/4/4
f 253/4/4 254/4/4 255/4/4
f 254/4/4 251/4/4 256/4/4
f 255/4/4 254/4/4 256/4/4
f 259/4/5 258/4/5 257/4/5
f 260/4/5 258/4/5 259/4/5
f 263/1/5 262/1/5 261/1/5
f 264/1/5 262/1/5 263/1/5
f 269/2/5 266/2/5 265/2/5
f 270/2/5 266/2/5 269/2/5
f 271/1/5 268/1/5 267/1/5
f 272/1/5 268/1/5 271/1/5
f 275/2/5 274/2/5 273/2/5
f 276/2/5 274/2/5 275/2/5
f 279/4/5 278/4/5 277/4/5
f 280/4/5 278/4/5 279/4/5
f 285/4/5 282/4/5 281/4/5
f 286/4/5 282/4/5 285/4/5
f 287/2/5 284/2/5 283/2/5
f 288/2/5 284/2/5 287/2/5
f 291/4/5 290/4/5 289/4/5
f 292/4/5 290/4/5 291/4/5
f 295/4/5 294/4/5 293/4/5
f 296/4/5 294/4/5 295/4/5
f 299/4/5 298/4/5 297/4/5
f 300/4/5 298/4/5 299/4/5
f 303/4/5 302/4/5 301/4/5
f 304/4/5 302/4/5 303/4/5
f 307/4/5 306/4/5 305/4/5
f 308/4/5 306/4/5 307/4/5
f 309/4/6 310/4/6 311/4/6
f 311/4/6 310/4/6 312/4/6
f 313/1/6 314/1/6 315/1/6
f 315/1/6 314/1/6 316/1/6
f 317/2/6 318/2/6 321/2/6
f 321/2/6 318/2/6 322/2/6
f 319/1/6 320/1/6 323/1/6
f 323/1/6 320/1/6 324/1/6
f 325/2/6 326/2/6 327/2/6
f 327/2/6 326/2/6 328/2/6
f 329/4/6 330/4/6 333/4/6
f 333/4/6 330/4/6 334/4/6
f 331/2/6 332/2/6 335/2/6
f 335/2/6 332/2/6 336/2/6
f 337/4/6 338/4/6 339/4/6
f 339/4/6 338/4/6 340/4/6
f 341/4/6 342/4/6 343/4/6
f 343/4/6 342/4/6 344/4/6
f 345/4/6 346/4/6 347/4/6
f 347/4/6 346/4/6 348/4/6
f 349/4/6 350/4/6 351/4/6
f 351/4/6 350/4/6 352/4/6
f 353/4/6 354/4/6 355/4/6
f 355/4/6 354/4/6 356/4/6
f 357/4/6 358/4/6 359/4/6
f 359/4/6 358/4/6 360/4/6
