# MagicaVoxel @ Ephtracy

# group
o 

# material
mtllib chainShort001.mtl
usemtl palette

# normals
vn -1 0 0
vn 1 0 0
vn 0 0 1
vn 0 0 -1
vn 0 -1 0
vn 0 1 0

# texcoords
vt 0.986328 0.5
vt 0.990234 0.5
vt 0.994141 0.5

# verts
v -0.2 1.5 0.1
v -0.2 1.5 -0.2
v -0.2 1.6 0.1
v -0.2 1.6 -0.2
v -0.1 1.3 0
v -0.1 1.3 -0.1
v -0.1 1.5 0.2
v -0.1 1.5 0.1
v -0.1 1.5 0
v -0.1 1.5 -0.1
v -0.1 1.5 -0.2
v -0.1 1.5 -0.3
v -0.1 1.6 0.2
v -0.1 1.6 0.1
v -0.1 1.6 -0.2
v -0.1 1.6 -0.3
v 0 1 -0.1
v 0 1 -0.2
v 0 1.1 0.1
v 0 1.1 0
v 0 1.2 0
v 0 1.2 -0.1
v 0 1.3 0.1
v 0 1.3 0
v 0 1.3 -0.1
v 0 1.3 -0.2
v 0.1 1.4 0
v 0.1 1.4 -0.1
v 0.1 1.5 0
v 0.1 1.5 -0.1
v 0 1.4 0
v 0 1.4 -0.1
v 0 1.5 0
v 0 1.5 -0.1
v 0.1 1 -0.1
v 0.1 1 -0.2
v 0.1 1.1 0.1
v 0.1 1.1 0
v 0.1 1.2 0
v 0.1 1.2 -0.1
v 0.1 1.3 0.1
v 0.1 1.3 0
v 0.1 1.3 -0.1
v 0.1 1.3 -0.2
v 0.2 1.3 0
v 0.2 1.3 -0.1
v 0.2 1.5 0.2
v 0.2 1.5 0.1
v 0.2 1.5 0
v 0.2 1.5 -0.1
v 0.2 1.5 -0.2
v 0.2 1.5 -0.3
v 0.2 1.6 0.2
v 0.2 1.6 0.1
v 0.2 1.6 -0.2
v 0.2 1.6 -0.3
v 0.3 1.5 0.1
v 0.3 1.5 -0.2
v 0.3 1.6 0.1
v 0.3 1.6 -0.2
v -0.1 1.5 0.2
v -0.1 1.6 0.2
v 0.2 1.5 0.2
v 0.2 1.6 0.2
v -0.2 1.5 0.1
v -0.2 1.6 0.1
v -0.1 1.5 0.1
v -0.1 1.6 0.1
v 0 1.1 0.1
v 0 1.3 0.1
v 0.1 1.1 0.1
v 0.1 1.3 0.1
v 0.2 1.5 0.1
v 0.2 1.6 0.1
v 0.3 1.5 0.1
v 0.3 1.6 0.1
v -0.1 1.3 0
v -0.1 1.5 0
v 0 1.3 0
v 0 1.4 0
v 0 1.5 0
v 0.1 1.3 0
v 0.1 1.4 0
v 0.1 1.5 0
v 0.2 1.3 0
v 0.2 1.5 0
v 0 1 -0.1
v 0 1.2 -0.1
v 0.1 1 -0.1
v 0.1 1.2 -0.1
v 0 1.1 0
v 0 1.2 0
v 0.1 1.1 0
v 0.1 1.2 0
v -0.1 1.3 -0.1
v -0.1 1.5 -0.1
v 0 1.3 -0.1
v 0 1.4 -0.1
v 0 1.5 -0.1
v 0.1 1.3 -0.1
v 0.1 1.4 -0.1
v 0.1 1.5 -0.1
v 0.2 1.3 -0.1
v 0.2 1.5 -0.1
v -0.2 1.5 -0.2
v -0.2 1.6 -0.2
v -0.1 1.5 -0.2
v -0.1 1.6 -0.2
v 0 1 -0.2
v 0 1.3 -0.2
v 0.1 1 -0.2
v 0.1 1.3 -0.2
v 0.2 1.5 -0.2
v 0.2 1.6 -0.2
v 0.3 1.5 -0.2
v 0.3 1.6 -0.2
v -0.1 1.5 -0.3
v -0.1 1.6 -0.3
v 0.2 1.5 -0.3
v 0.2 1.6 -0.3
v 0 1 -0.1
v 0.1 1 -0.1
v 0 1 -0.2
v 0.1 1 -0.2
v 0 1.1 0.1
v 0.1 1.1 0.1
v 0 1.1 0
v 0.1 1.1 0
v 0 1.2 0
v 0.1 1.2 0
v 0 1.2 -0.1
v 0.1 1.2 -0.1
v -0.1 1.3 0
v 0 1.3 0
v 0.1 1.3 0
v 0.2 1.3 0
v -0.1 1.3 -0.1
v 0 1.3 -0.1
v 0.1 1.3 -0.1
v 0.2 1.3 -0.1
v -0.1 1.5 0.2
v 0.2 1.5 0.2
v -0.2 1.5 0.1
v -0.1 1.5 0.1
v 0.2 1.5 0.1
v 0.3 1.5 0.1
v -0.1 1.5 0
v 0 1.5 0
v 0.1 1.5 0
v 0.2 1.5 0
v -0.1 1.5 -0.1
v 0 1.5 -0.1
v 0.1 1.5 -0.1
v 0.2 1.5 -0.1
v -0.2 1.5 -0.2
v -0.1 1.5 -0.2
v 0.2 1.5 -0.2
v 0.3 1.5 -0.2
v -0.1 1.5 -0.3
v 0.2 1.5 -0.3
v 0 1.3 0.1
v 0.1 1.3 0.1
v 0 1.3 0
v 0.1 1.3 0
v 0 1.3 -0.1
v 0.1 1.3 -0.1
v 0 1.3 -0.2
v 0.1 1.3 -0.2
v 0 1.4 0
v 0.1 1.4 0
v 0 1.4 -0.1
v 0.1 1.4 -0.1
v -0.1 1.6 0.2
v 0.2 1.6 0.2
v -0.2 1.6 0.1
v -0.1 1.6 0.1
v 0.2 1.6 0.1
v 0.3 1.6 0.1
v -0.2 1.6 -0.2
v -0.1 1.6 -0.2
v 0.2 1.6 -0.2
v 0.3 1.6 -0.2
v -0.1 1.6 -0.3
v 0.2 1.6 -0.3

# faces
f 3/3/1 2/3/1 1/3/1
f 4/3/1 2/3/1 3/3/1
f 9/1/1 6/1/1 5/1/1
f 10/1/1 6/1/1 9/1/1
f 13/3/1 8/3/1 7/3/1
f 14/3/1 8/3/1 13/3/1
f 15/3/1 12/3/1 11/3/1
f 16/3/1 12/3/1 15/3/1
f 21/2/1 20/2/1 19/2/1
f 22/2/1 18/2/1 17/2/1
f 23/2/1 21/2/1 19/2/1
f 24/1/1 22/1/1 21/1/1
f 24/2/1 21/2/1 23/2/1
f 25/2/1 18/2/1 22/2/1
f 25/1/1 22/1/1 24/1/1
f 26/2/1 18/2/1 25/2/1
f 29/1/1 28/1/1 27/1/1
f 30/1/1 28/1/1 29/1/1
f 31/1/2 32/1/2 33/1/2
f 33/1/2 32/1/2 34/1/2
f 37/2/2 38/2/2 39/2/2
f 35/2/2 36/2/2 40/2/2
f 37/2/2 39/2/2 41/2/2
f 39/1/2 40/1/2 42/1/2
f 41/2/2 39/2/2 42/2/2
f 40/2/2 36/2/2 43/2/2
f 42/1/2 40/1/2 43/1/2
f 43/2/2 36/2/2 44/2/2
f 45/1/2 46/1/2 49/1/2
f 49/1/2 46/1/2 50/1/2
f 47/3/2 48/3/2 53/3/2
f 53/3/2 48/3/2 54/3/2
f 51/3/2 52/3/2 55/3/2
f 55/3/2 52/3/2 56/3/2
f 57/3/2 58/3/2 59/3/2
f 59/3/2 58/3/2 60/3/2
f 63/3/3 62/3/3 61/3/3
f 64/3/3 62/3/3 63/3/3
f 67/3/3 66/3/3 65/3/3
f 68/3/3 66/3/3 67/3/3
f 71/2/3 70/2/3 69/2/3
f 72/2/3 70/2/3 71/2/3
f 75/3/3 74/3/3 73/3/3
f 76/3/3 74/3/3 75/3/3
f 79/1/3 78/1/3 77/1/3
f 80/1/3 78/1/3 79/1/3
f 81/1/3 78/1/3 80/1/3
f 82/2/3 80/2/3 79/2/3
f 83/2/3 80/2/3 82/2/3
f 85/1/3 83/1/3 82/1/3
f 85/1/3 84/1/3 83/1/3
f 86/1/3 84/1/3 85/1/3
f 89/2/3 88/2/3 87/2/3
f 90/2/3 88/2/3 89/2/3
f 91/2/4 92/2/4 93/2/4
f 93/2/4 92/2/4 94/2/4
f 95/1/4 96/1/4 97/1/4
f 97/1/4 96/1/4 98/1/4
f 98/1/4 96/1/4 99/1/4
f 97/2/4 98/2/4 100/2/4
f 100/2/4 98/2/4 101/2/4
f 100/1/4 101/1/4 103/1/4
f 101/1/4 102/1/4 103/1/4
f 103/1/4 102/1/4 104/1/4
f 105/3/4 106/3/4 107/3/4
f 107/3/4 106/3/4 108/3/4
f 109/2/4 110/2/4 111/2/4
f 111/2/4 110/2/4 112/2/4
f 113/3/4 114/3/4 115/3/4
f 115/3/4 114/3/4 116/3/4
f 117/3/4 118/3/4 119/3/4
f 119/3/4 118/3/4 120/3/4
f 123/2/5 122/2/5 121/2/5
f 124/2/5 122/2/5 123/2/5
f 127/2/5 126/2/5 125/2/5
f 128/2/5 126/2/5 127/2/5
f 131/1/5 130/1/5 129/1/5
f 132/1/5 130/1/5 131/1/5
f 137/1/5 134/1/5 133/1/5
f 138/1/5 134/1/5 137/1/5
f 139/1/5 136/1/5 135/1/5
f 140/1/5 136/1/5 139/1/5
f 144/3/5 142/3/5 141/3/5
f 145/3/5 142/3/5 144/3/5
f 147/3/5 144/3/5 143/3/5
f 147/3/5 146/3/5 145/3/5
f 147/3/5 145/3/5 144/3/5
f 148/3/5 146/3/5 147/3/5
f 149/3/5 146/3/5 148/3/5
f 150/3/5 146/3/5 149/3/5
f 151/3/5 147/3/5 143/3/5
f 152/3/5 149/3/5 148/3/5
f 153/3/5 149/3/5 152/3/5
f 154/3/5 146/3/5 150/3/5
f 155/3/5 153/3/5 152/3/5
f 155/3/5 154/3/5 153/3/5
f 155/3/5 151/3/5 143/3/5
f 155/3/5 152/3/5 151/3/5
f 156/3/5 154/3/5 155/3/5
f 157/3/5 146/3/5 154/3/5
f 157/3/5 154/3/5 156/3/5
f 158/3/5 146/3/5 157/3/5
f 159/3/5 157/3/5 156/3/5
f 160/3/5 157/3/5 159/3/5
f 161/2/6 162/2/6 163/2/6
f 163/2/6 162/2/6 164/2/6
f 165/2/6 166/2/6 167/2/6
f 167/2/6 166/2/6 168/2/6
f 169/2/6 170/2/6 171/2/6
f 171/2/6 170/2/6 172/2/6
f 173/3/6 174/3/6 176/3/6
f 176/3/6 174/3/6 177/3/6
f 175/3/6 176/3/6 179/3/6
f 177/3/6 178/3/6 179/3/6
f 176/3/6 177/3/6 179/3/6
f 179/3/6 178/3/6 180/3/6
f 180/3/6 178/3/6 181/3/6
f 181/3/6 178/3/6 182/3/6
f 180/3/6 181/3/6 183/3/6
f 183/3/6 181/3/6 184/3/6
