# MagicaVoxel @ Ephtracy

# group
o 

# material
mtllib Doorway001.mtl
usemtl palette

# normals
vn -1 0 0
vn 1 0 0
vn 0 0 1
vn 0 0 -1
vn 0 -1 0
vn 0 1 0

# texcoords
vt 0.0449219 0.5
vt 0.392578 0.5
vt 0.396484 0.5
vt 0.986328 0.5

# verts
v -0.6 0 -0.5
v -0.6 0 -0.6
v -0.6 0 -0.8
v -0.6 0.1 -0.5
v -0.6 0.1 -0.6
v -0.6 1.3 -0.6
v -0.6 1.3 -0.8
v -0.5 1.3 -0.6
v -0.5 1.3 -0.8
v -0.5 1.4 -0.6
v -0.5 1.4 -0.8
v -0.4 1.4 -0.6
v -0.4 1.4 -0.8
v -0.4 1.6 -0.6
v -0.4 1.6 -0.8
v 0.3 0.6 -0.6
v 0.3 0.6 -0.7
v 0.3 0.7 -0.6
v 0.3 0.7 -0.7
v 0.3 1.4 -0.6
v 0.3 1.4 -0.7
v 0.3 1.5 -0.6
v 0.3 1.5 -0.7
v 0.4 1.3 -0.6
v 0.4 1.3 -0.7
v 0.4 1.4 -0.6
v 0.4 1.4 -0.7
v 0.5 0.1 -0.6
v 0.5 0.1 -0.7
v 0.5 1.3 -0.6
v 0.5 1.3 -0.7
v -0.5 0.1 -0.6
v -0.5 0.1 -0.7
v -0.5 1.3 -0.6
v -0.5 1.3 -0.7
v -0.4 1.3 -0.6
v -0.4 1.3 -0.7
v -0.4 1.4 -0.6
v -0.4 1.4 -0.7
v -0.3 1.4 -0.6
v -0.3 1.4 -0.7
v -0.3 1.5 -0.6
v -0.3 1.5 -0.7
v 0.4 0.6 -0.6
v 0.4 0.6 -0.7
v 0.4 0.7 -0.6
v 0.4 0.7 -0.7
v 0.4 1.4 -0.6
v 0.4 1.4 -0.8
v 0.4 1.6 -0.6
v 0.4 1.6 -0.8
v 0.5 1.3 -0.6
v 0.5 1.3 -0.8
v 0.5 1.4 -0.6
v 0.5 1.4 -0.8
v 0.6 0 -0.5
v 0.6 0 -0.6
v 0.6 0 -0.8
v 0.6 0.1 -0.5
v 0.6 0.1 -0.6
v 0.6 1.3 -0.6
v 0.6 1.3 -0.8
v -0.6 0 -0.5
v -0.6 0.1 -0.5
v 0.6 0 -0.5
v 0.6 0.1 -0.5
v -0.6 0.1 -0.6
v -0.6 1.3 -0.6
v -0.5 0.1 -0.6
v -0.5 1.3 -0.6
v -0.5 1.4 -0.6
v -0.4 1.3 -0.6
v -0.4 1.4 -0.6
v -0.4 1.6 -0.6
v -0.3 1.4 -0.6
v -0.3 1.5 -0.6
v 0.3 0.6 -0.6
v 0.3 0.7 -0.6
v 0.3 1.4 -0.6
v 0.3 1.5 -0.6
v 0.4 0.6 -0.6
v 0.4 0.7 -0.6
v 0.4 1.3 -0.6
v 0.4 1.4 -0.6
v 0.4 1.6 -0.6
v 0.5 0.1 -0.6
v 0.5 1.3 -0.6
v 0.5 1.4 -0.6
v 0.6 0.1 -0.6
v 0.6 1.3 -0.6
v -0.5 0.1 -0.7
v -0.5 1.3 -0.7
v -0.4 0.2 -0.7
v -0.4 1.2 -0.7
v -0.4 1.3 -0.7
v -0.4 1.4 -0.7
v -0.3 0.2 -0.7
v -0.3 1.2 -0.7
v -0.3 1.4 -0.7
v -0.3 1.5 -0.7
v -0.2 0.2 -0.7
v -0.2 1.4 -0.7
v -0.1 0.2 -0.7
v -0.1 1.4 -0.7
v 0 0.2 -0.7
v 0 1.4 -0.7
v 0.1 0.2 -0.7
v 0.1 1.4 -0.7
v 0.2 0.2 -0.7
v 0.2 1.3 -0.7
v 0.3 0.2 -0.7
v 0.3 0.6 -0.7
v 0.3 0.7 -0.7
v 0.3 1.3 -0.7
v 0.3 1.4 -0.7
v 0.3 1.5 -0.7
v 0.4 0.6 -0.7
v 0.4 0.7 -0.7
v 0.4 1.3 -0.7
v 0.4 1.4 -0.7
v 0.5 0.1 -0.7
v 0.5 1.3 -0.7
v -0.6 0 -0.8
v -0.6 1.3 -0.8
v -0.5 0 -0.8
v -0.5 1.3 -0.8
v -0.5 1.4 -0.8
v -0.4 0.2 -0.8
v -0.4 1.2 -0.8
v -0.4 1.3 -0.8
v -0.4 1.4 -0.8
v -0.4 1.6 -0.8
v -0.3 0.2 -0.8
v -0.3 1.2 -0.8
v -0.3 1.4 -0.8
v -0.3 1.5 -0.8
v -0.2 0.2 -0.8
v -0.2 1.4 -0.8
v -0.1 0.2 -0.8
v -0.1 1.4 -0.8
v 0 0.2 -0.8
v 0 1.4 -0.8
v 0.1 0.2 -0.8
v 0.1 1.4 -0.8
v 0.2 0.2 -0.8
v 0.2 1.3 -0.8
v 0.3 0.2 -0.8
v 0.3 0.6 -0.8
v 0.3 0.7 -0.8
v 0.3 1.3 -0.8
v 0.3 1.4 -0.8
v 0.3 1.5 -0.8
v 0.4 0.6 -0.8
v 0.4 0.7 -0.8
v 0.4 1.3 -0.8
v 0.4 1.4 -0.8
v 0.4 1.6 -0.8
v 0.5 0 -0.8
v 0.5 1.3 -0.8
v 0.5 1.4 -0.8
v 0.6 0 -0.8
v 0.6 1.3 -0.8
v -0.6 0 -0.5
v 0.6 0 -0.5
v -0.6 0 -0.6
v -0.5 0 -0.6
v 0.5 0 -0.6
v 0.6 0 -0.6
v -0.5 0 -0.7
v 0.5 0 -0.7
v -0.6 0 -0.8
v -0.5 0 -0.8
v 0.5 0 -0.8
v 0.6 0 -0.8
v 0.3 0.6 -0.6
v 0.4 0.6 -0.6
v 0.3 0.6 -0.7
v 0.4 0.6 -0.7
v -0.5 1.3 -0.6
v -0.4 1.3 -0.6
v 0.4 1.3 -0.6
v 0.5 1.3 -0.6
v -0.5 1.3 -0.7
v -0.4 1.3 -0.7
v 0.4 1.3 -0.7
v 0.5 1.3 -0.7
v -0.4 1.4 -0.6
v -0.3 1.4 -0.6
v 0.3 1.4 -0.6
v 0.4 1.4 -0.6
v -0.4 1.4 -0.7
v -0.3 1.4 -0.7
v 0.3 1.4 -0.7
v 0.4 1.4 -0.7
v -0.3 1.5 -0.6
v 0.3 1.5 -0.6
v -0.3 1.5 -0.7
v 0.3 1.5 -0.7
v -0.6 0.1 -0.5
v 0.6 0.1 -0.5
v -0.6 0.1 -0.6
v -0.5 0.1 -0.6
v 0.5 0.1 -0.6
v 0.6 0.1 -0.6
v -0.5 0.1 -0.7
v 0.5 0.1 -0.7
v 0.3 0.7 -0.6
v 0.4 0.7 -0.6
v 0.3 0.7 -0.7
v 0.4 0.7 -0.7
v -0.6 1.3 -0.6
v -0.5 1.3 -0.6
v 0.5 1.3 -0.6
v 0.6 1.3 -0.6
v -0.6 1.3 -0.8
v -0.5 1.3 -0.8
v 0.5 1.3 -0.8
v 0.6 1.3 -0.8
v -0.5 1.4 -0.6
v -0.4 1.4 -0.6
v 0.4 1.4 -0.6
v 0.5 1.4 -0.6
v -0.5 1.4 -0.8
v -0.4 1.4 -0.8
v 0.4 1.4 -0.8
v 0.5 1.4 -0.8
v -0.4 1.6 -0.6
v 0.4 1.6 -0.6
v -0.4 1.6 -0.8
v 0.4 1.6 -0.8

# faces
f 4/3/1 2/3/1 1/3/1
f 5/4/1 3/4/1 2/4/1
f 5/3/1 2/3/1 4/3/1
f 6/4/1 3/4/1 5/4/1
f 7/4/1 3/4/1 6/4/1
f 10/4/1 9/4/1 8/4/1
f 11/4/1 9/4/1 10/4/1
f 14/4/1 13/4/1 12/4/1
f 15/4/1 13/4/1 14/4/1
f 18/1/1 17/1/1 16/1/1
f 19/1/1 17/1/1 18/1/1
f 22/4/1 21/4/1 20/4/1
f 23/4/1 21/4/1 22/4/1
f 26/4/1 25/4/1 24/4/1
f 27/4/1 25/4/1 26/4/1
f 30/4/1 29/4/1 28/4/1
f 31/4/1 29/4/1 30/4/1
f 32/4/2 33/4/2 34/4/2
f 34/4/2 33/4/2 35/4/2
f 36/4/2 37/4/2 38/4/2
f 38/4/2 37/4/2 39/4/2
f 40/4/2 41/4/2 42/4/2
f 42/4/2 41/4/2 43/4/2
f 44/1/2 45/1/2 46/1/2
f 46/1/2 45/1/2 47/1/2
f 48/4/2 49/4/2 50/4/2
f 50/4/2 49/4/2 51/4/2
f 52/4/2 53/4/2 54/4/2
f 54/4/2 53/4/2 55/4/2
f 56/3/2 57/3/2 59/3/2
f 57/4/2 58/4/2 60/4/2
f 59/3/2 57/3/2 60/3/2
f 60/4/2 58/4/2 61/4/2
f 61/4/2 58/4/2 62/4/2
f 65/3/3 64/3/3 63/3/3
f 66/3/3 64/3/3 65/3/3
f 69/4/3 68/4/3 67/4/3
f 70/4/3 68/4/3 69/4/3
f 72/4/3 71/4/3 70/4/3
f 73/4/3 71/4/3 72/4/3
f 75/4/3 74/4/3 73/4/3
f 76/4/3 74/4/3 75/4/3
f 80/4/3 74/4/3 76/4/3
f 81/1/3 78/1/3 77/1/3
f 82/1/3 78/1/3 81/1/3
f 84/4/3 80/4/3 79/4/3
f 85/4/3 74/4/3 80/4/3
f 85/4/3 80/4/3 84/4/3
f 87/4/3 84/4/3 83/4/3
f 88/4/3 84/4/3 87/4/3
f 89/4/3 87/4/3 86/4/3
f 90/4/3 87/4/3 89/4/3
f 93/2/3 92/2/3 91/2/3
f 94/2/3 92/2/3 93/2/3
f 95/2/3 92/2/3 94/2/3
f 97/2/3 93/2/3 91/2/3
f 97/3/3 94/3/3 93/3/3
f 98/2/3 96/2/3 95/2/3
f 98/3/3 94/3/3 97/3/3
f 98/2/3 95/2/3 94/2/3
f 99/2/3 96/2/3 98/2/3
f 101/2/3 97/2/3 91/2/3
f 101/2/3 100/2/3 99/2/3
f 101/2/3 99/2/3 98/2/3
f 101/2/3 98/2/3 97/2/3
f 102/2/3 100/2/3 101/2/3
f 103/2/3 101/2/3 91/2/3
f 103/3/3 102/3/3 101/3/3
f 104/2/3 100/2/3 102/2/3
f 104/3/3 102/3/3 103/3/3
f 105/2/3 103/2/3 91/2/3
f 105/2/3 104/2/3 103/2/3
f 106/2/3 100/2/3 104/2/3
f 106/2/3 104/2/3 105/2/3
f 107/2/3 105/2/3 91/2/3
f 107/3/3 106/3/3 105/3/3
f 108/2/3 100/2/3 106/2/3
f 108/3/3 106/3/3 107/3/3
f 109/2/3 107/2/3 91/2/3
f 109/2/3 108/2/3 107/2/3
f 110/2/3 108/2/3 109/2/3
f 111/2/3 109/2/3 91/2/3
f 111/3/3 110/3/3 109/3/3
f 112/3/3 110/3/3 111/3/3
f 113/3/3 110/3/3 112/3/3
f 114/2/3 108/2/3 110/2/3
f 114/3/3 110/3/3 113/3/3
f 115/2/3 100/2/3 108/2/3
f 115/2/3 108/2/3 114/2/3
f 116/2/3 100/2/3 115/2/3
f 117/2/3 112/2/3 111/2/3
f 118/2/3 114/2/3 113/2/3
f 118/2/3 115/2/3 114/2/3
f 119/2/3 115/2/3 118/2/3
f 120/2/3 115/2/3 119/2/3
f 121/2/3 117/2/3 111/2/3
f 121/2/3 111/2/3 91/2/3
f 121/2/3 119/2/3 118/2/3
f 121/2/3 118/2/3 117/2/3
f 122/2/3 119/2/3 121/2/3
f 123/4/4 124/4/4 125/4/4
f 125/4/4 124/4/4 126/4/4
f 125/2/4 126/2/4 128/2/4
f 128/2/4 126/2/4 129/2/4
f 126/4/4 127/4/4 130/4/4
f 129/2/4 126/2/4 130/2/4
f 130/4/4 127/4/4 131/4/4
f 128/3/4 129/3/4 133/3/4
f 125/2/4 128/2/4 133/2/4
f 130/2/4 131/2/4 134/2/4
f 133/3/4 129/3/4 134/3/4
f 129/2/4 130/2/4 134/2/4
f 131/4/4 132/4/4 135/4/4
f 134/2/4 131/2/4 135/2/4
f 135/4/4 132/4/4 136/4/4
f 133/2/4 134/2/4 137/2/4
f 125/2/4 133/2/4 137/2/4
f 135/2/4 136/2/4 137/2/4
f 134/2/4 135/2/4 137/2/4
f 137/2/4 136/2/4 138/2/4
f 125/2/4 137/2/4 139/2/4
f 137/3/4 138/3/4 139/3/4
f 138/2/4 136/2/4 140/2/4
f 139/3/4 138/3/4 140/3/4
f 125/2/4 139/2/4 141/2/4
f 139/2/4 140/2/4 141/2/4
f 140/2/4 136/2/4 142/2/4
f 141/2/4 140/2/4 142/2/4
f 125/2/4 141/2/4 143/2/4
f 141/3/4 142/3/4 143/3/4
f 142/2/4 136/2/4 144/2/4
f 143/3/4 142/3/4 144/3/4
f 125/2/4 143/2/4 145/2/4
f 143/2/4 144/2/4 145/2/4
f 145/2/4 144/2/4 146/2/4
f 125/2/4 145/2/4 147/2/4
f 145/3/4 146/3/4 147/3/4
f 147/3/4 146/3/4 148/3/4
f 148/3/4 146/3/4 149/3/4
f 146/2/4 144/2/4 150/2/4
f 149/3/4 146/3/4 150/3/4
f 144/2/4 136/2/4 151/2/4
f 150/2/4 144/2/4 151/2/4
f 136/4/4 132/4/4 152/4/4
f 151/2/4 136/2/4 152/2/4
f 148/1/4 149/1/4 153/1/4
f 147/2/4 148/2/4 153/2/4
f 150/2/4 151/2/4 154/2/4
f 153/1/4 149/1/4 154/1/4
f 149/2/4 150/2/4 154/2/4
f 154/2/4 151/2/4 155/2/4
f 151/4/4 152/4/4 156/4/4
f 155/2/4 151/2/4 156/2/4
f 152/4/4 132/4/4 157/4/4
f 156/4/4 152/4/4 157/4/4
f 147/2/4 153/2/4 158/2/4
f 154/2/4 155/2/4 158/2/4
f 153/2/4 154/2/4 158/2/4
f 125/2/4 147/2/4 158/2/4
f 155/4/4 156/4/4 159/4/4
f 158/2/4 155/2/4 159/2/4
f 159/4/4 156/4/4 160/4/4
f 158/4/4 159/4/4 161/4/4
f 161/4/4 159/4/4 162/4/4
f 165/3/5 164/3/5 163/3/5
f 166/3/5 164/3/5 165/3/5
f 167/3/5 164/3/5 166/3/5
f 168/3/5 164/3/5 167/3/5
f 169/4/5 166/4/5 165/4/5
f 169/3/5 167/3/5 166/3/5
f 170/4/5 168/4/5 167/4/5
f 170/3/5 167/3/5 169/3/5
f 171/4/5 169/4/5 165/4/5
f 172/2/5 170/2/5 169/2/5
f 172/4/5 169/4/5 171/4/5
f 173/4/5 168/4/5 170/4/5
f 173/2/5 170/2/5 172/2/5
f 174/4/5 168/4/5 173/4/5
f 177/1/5 176/1/5 175/1/5
f 178/1/5 176/1/5 177/1/5
f 183/4/5 180/4/5 179/4/5
f 184/4/5 180/4/5 183/4/5
f 185/4/5 182/4/5 181/4/5
f 186/4/5 182/4/5 185/4/5
f 191/4/5 188/4/5 187/4/5
f 192/4/5 188/4/5 191/4/5
f 193/4/5 190/4/5 189/4/5
f 194/4/5 190/4/5 193/4/5
f 197/4/5 196/4/5 195/4/5
f 198/4/5 196/4/5 197/4/5
f 199/3/6 200/3/6 201/3/6
f 201/3/6 200/3/6 202/3/6
f 202/3/6 200/3/6 203/3/6
f 203/3/6 200/3/6 204/3/6
f 202/3/6 203/3/6 205/3/6
f 205/3/6 203/3/6 206/3/6
f 207/1/6 208/1/6 209/1/6
f 209/1/6 208/1/6 210/1/6
f 211/4/6 212/4/6 215/4/6
f 215/4/6 212/4/6 216/4/6
f 213/4/6 214/4/6 217/4/6
f 217/4/6 214/4/6 218/4/6
f 219/4/6 220/4/6 223/4/6
f 223/4/6 220/4/6 224/4/6
f 221/4/6 222/4/6 225/4/6
f 225/4/6 222/4/6 226/4/6
f 227/4/6 228/4/6 229/4/6
f 229/4/6 228/4/6 230/4/6
